<svg xmlns="http://www.w3.org/2000/svg" version="1.1" xmlns:xlink="http://www.w3.org/1999/xlink" xmlns:svgjs="http://svgjs.dev/svgjs" width="1440" height="560" preserveAspectRatio="none" viewBox="0 0 1440 560"><g mask="url(&quot;#SvgjsMask1016&quot;)" fill="none"><rect width="1440" height="560" x="0" y="0" fill="rgba(255, 255, 255, 1)"></rect><path d="M175.16142470418566 436.4451882255023L309.069826742758 390.33682775212776 129.05306423081112 302.53678618692993z" fill="rgba(11, 188, 82, 0.91)" class="triangle-float3"></path><path d="M180.478,620.622C220.274,619.263,256.129,598.857,277.046,564.975C299.172,529.134,309.505,483.342,287.338,447.526C265.977,413.012,221.061,408.254,180.478,408.945C141.476,409.61,101.384,418.608,79.744,451.063C55.726,487.085,49.658,534.762,71.771,571.984C93.503,608.564,137.955,622.074,180.478,620.622" fill="rgba(11, 188, 82, 0.91)" class="triangle-float1"></path><path d="M531.7401518225859 539.625894849316L639.3144956375503 502.5850777923074 602.2736785805417 395.01073397734297 494.6993347655773 432.0515510343515z" fill="rgba(11, 188, 82, 0.91)" class="triangle-float2"></path><path d="M765.409,91.528C788.929,90.726,811.337,80.37,823.306,60.107C835.477,39.501,834.928,14.168,823.534,-6.878C811.537,-29.039,790.608,-46.594,765.409,-46.837C739.85,-47.083,718.242,-30.065,705.313,-8.016C692.211,14.328,686.852,42.132,700.239,64.306C713.28,85.908,740.191,92.388,765.409,91.528" fill="rgba(11, 188, 82, 0.91)" class="triangle-float2"></path><path d="M582.6575570799471 419.3208811881614L473.16421165855036 363.5312351456755 526.8679110374612 528.8142266095581z" fill="rgba(11, 188, 82, 0.91)" class="triangle-float3"></path><path d="M616.0873958069964 449.1709349240483L623.0822471820537 549.2019699540471 723.1132822120525 542.2071185789896 716.1184308369951 442.17608354899096z" fill="rgba(11, 188, 82, 0.91)" class="triangle-float1"></path><path d="M272.1440834401355 33.45305037251324L197.62826682542183 76.47477715390298 299.41876530486326 166.7376386852786z" fill="rgba(11, 188, 82, 0.91)" class="triangle-float2"></path><path d="M363.41305149674434 257.8092927693899L324.26033273588354 385.8720654491246 452.3231054156182 425.0247842099854 491.475824176479 296.9620115302507z" fill="rgba(11, 188, 82, 0.91)" class="triangle-float3"></path><path d="M907.632,342.991C927.023,343.553,945.902,335.432,956.4,319.119C967.824,301.367,972.014,278.156,960.91,260.202C950.22,242.917,927.916,238.994,907.632,240.263C889.765,241.38,873.739,250.723,864.768,266.215C855.776,281.743,854.781,300.758,863.528,316.426C872.495,332.487,889.246,342.458,907.632,342.991" fill="rgba(11, 188, 82, 0.91)" class="triangle-float1"></path><path d="M443.196,396.131C502.801,396.374,563.99,370.794,590.219,317.27C614.361,268.005,586.26,212.932,555.097,167.78C528.984,129.945,489.018,107.958,443.196,104.248C388.23,99.798,325.938,101.197,294.795,146.707C260.615,196.655,267.29,264.065,298.236,316.078C328.486,366.921,384.035,395.89,443.196,396.131" fill="rgba(11, 188, 82, 0.91)" class="triangle-float1"></path><path d="M778.7185853158755 31.838496571232483L696.9444821534732 82.82832977137446 770.623832450828 123.66946054635747z" fill="rgba(11, 188, 82, 0.91)" class="triangle-float1"></path><path d="M1251.64,383.29C1296.682,384.12,1340.268,363.657,1363.478,325.046C1387.381,285.283,1386.428,236.191,1364.712,195.193C1341.424,151.228,1301.389,114.422,1251.64,113.909C1201.169,113.388,1157.259,147.79,1134.452,192.817C1113.656,233.874,1122.601,281.854,1146.718,321.052C1169.557,358.173,1208.063,382.487,1251.64,383.29" fill="rgba(11, 188, 82, 0.91)" class="triangle-float3"></path></g><defs><mask id="SvgjsMask1016"><rect width="1440" height="560" fill="#ffffff"></rect></mask><style>
                @keyframes float1 {
                    0%{transform: translate(0, 0)}
                    50%{transform: translate(-10px, 0)}
                    100%{transform: translate(0, 0)}
                }

                .triangle-float1 {
                    animation: float1 5s infinite;
                }

                @keyframes float2 {
                    0%{transform: translate(0, 0)}
                    50%{transform: translate(-5px, -5px)}
                    100%{transform: translate(0, 0)}
                }

                .triangle-float2 {
                    animation: float2 4s infinite;
                }

                @keyframes float3 {
                    0%{transform: translate(0, 0)}
                    50%{transform: translate(0, -10px)}
                    100%{transform: translate(0, 0)}
                }

                .triangle-float3 {
                    animation: float3 6s infinite;
                }
            </style></defs></svg>