<svg xmlns="http://www.w3.org/2000/svg" version="1.1" xmlns:xlink="http://www.w3.org/1999/xlink" xmlns:svgjs="http://svgjs.dev/svgjs" width="1440" height="2560" preserveAspectRatio="none" viewBox="0 0 1440 2560"><g mask="url(&quot;#SvgjsMask1372&quot;)" fill="none"><rect width="1440" height="2560" x="0" y="0" fill="rgba(255, 255, 255, 1)"></rect><path d="M86.89 776.56 a478.33 478.33 0 1 0 956.66 0 a478.33 478.33 0 1 0 -956.66 0z" fill="rgba(11, 188, 82, 0.91)" class="triangle-float1"></path><path d="M845.1081418321357 1102.6883790766724L804.8487989611174 772.1988022138731 569.3961074829011 943.2651959061227z" fill="rgba(11, 188, 82, 0.91)" class="triangle-float3"></path><path d="M317.701,1048.417C387.995,1047.054,453.509,1016.066,492.142,957.325C535.339,891.645,560.316,807.311,521.071,739.196C481.783,671.006,396.171,648.568,317.701,654.556C249.312,659.775,197.202,707.856,161.816,766.611C124.937,827.845,96.537,901.774,131.137,964.324C166.526,1028.299,244.604,1049.834,317.701,1048.417" fill="rgba(11, 188, 82, 0.91)" class="triangle-float3"></path><path d="M988.6016191102027 1376.1981987770964L1156.2164531078818 1240.4663824791444 868.8113116621142 1056.9100396316019z" fill="rgba(11, 188, 82, 0.91)" class="triangle-float1"></path><path d="M527.122027094587 2406.0073533620543L418.96613662051607 2137.5758766458043 259.7592069725624 2334.1800613687383z" fill="rgba(11, 188, 82, 0.91)" class="triangle-float3"></path><path d="M121.19 370.42 a330.8 330.8 0 1 0 661.6 0 a330.8 330.8 0 1 0 -661.6 0z" fill="rgba(11, 188, 82, 0.91)" class="triangle-float1"></path><path d="M1014.194,879.706C1103.192,879.402,1183.255,821.769,1221.338,741.33C1254.99,670.25,1223.664,591.564,1182.269,524.696C1143.653,462.317,1087.558,406.914,1014.194,406.717C940.555,406.52,883.523,461.311,844.55,523.791C802.464,591.261,770.37,670.97,804.585,742.753C843.074,823.503,924.741,880.011,1014.194,879.706" fill="rgba(11, 188, 82, 0.91)" class="triangle-float2"></path><path d="M526.3032130410595 2101.1707592764856L380.0897284021487 1699.4525118113029 124.58496557587694 2247.3842439153964z" fill="rgba(11, 188, 82, 0.91)" class="triangle-float3"></path><path d="M755.6228312840184 1480.9546499066444L669.209060731164 1198.3079422207531 386.5623530452727 1284.7217127736076 472.9761235981271 1567.3684204594988z" fill="rgba(11, 188, 82, 0.91)" class="triangle-float3"></path><path d="M53.87069780806043 2250.029991960401L376.6338170855415 2233.1146936446007 359.71851876974125 1910.3515743671194 36.95539949226014 1927.2668726829197z" fill="rgba(11, 188, 82, 0.91)" class="triangle-float3"></path><path d="M1429.779,348.681C1507.383,349.109,1591.947,336.81,1632.493,270.64C1674.405,202.241,1653.313,117.152,1614.755,46.807C1574.288,-27.021,1513.945,-101.23,1429.779,-99.195C1347.683,-97.211,1298.743,-16.838,1259.669,55.39C1223.126,122.939,1192.372,201.989,1230.904,268.423C1269.345,334.701,1353.161,348.258,1429.779,348.681" fill="rgba(11, 188, 82, 0.91)" class="triangle-float1"></path><path d="M1503.0897817087662 1460.6502035523386L1230.5502732751133 1356.0320881384278 1125.9321578612025 1628.5715965720806 1398.4716662948554 1733.1897119859914z" fill="rgba(11, 188, 82, 0.91)" class="triangle-float1"></path><path d="M181.0584998080696 2264.8867023586895L-138.85282412545186 2258.997649060843-7.541538654858613 2505.958258844035z" fill="rgba(11, 188, 82, 0.91)" class="triangle-float2"></path><path d="M1169.435,1024.275C1314.772,1018.498,1416.008,891.358,1479.584,760.536C1534.541,647.45,1525.429,520.908,1468.549,408.777C1404.531,282.573,1310.947,149.034,1169.435,149.116C1028.004,149.198,939.845,285.625,870.92,409.124C804.368,528.371,753.803,664.155,813.423,787.014C880.153,924.526,1016.708,1030.346,1169.435,1024.275" fill="rgba(11, 188, 82, 0.91)" class="triangle-float2"></path><path d="M1001.811,2711.519C1130.884,2710.824,1262.624,2671.095,1330.346,2561.213C1401.107,2446.4,1398.131,2298.375,1327.096,2183.731C1259.474,2074.596,1130.198,2030.704,1001.811,2030.987C874.003,2031.268,746.896,2076.876,678.998,2185.157C606.911,2300.119,596.152,2449.11,667.093,2564.783C735.355,2676.088,871.243,2712.222,1001.811,2711.519" fill="rgba(11, 188, 82, 0.91)" class="triangle-float1"></path><path d="M1360.4399266908006 1150.5984424009457L1102.0650258184378 1146.0884917303968 1224.4875502487957 1535.9058183742156z" fill="rgba(11, 188, 82, 0.91)" class="triangle-float3"></path><path d="M702.9436371333427 1559.310060475407L391.61869323939334 1849.0710553197964 745.2060805754618 1963.9585618048186z" fill="rgba(11, 188, 82, 0.91)" class="triangle-float2"></path><path d="M1275.6447489223617 1350.5296963412345L990.8840526379877 1443.0540552770242 1083.4084115737774 1727.8147515613982 1368.1691078581514 1635.2903926256085z" fill="rgba(11, 188, 82, 0.91)" class="triangle-float2"></path><path d="M674.7913886224586 548.7944118730622L549.1551792174969 418.69430852448454 416.8231288971112 672.1986743062159z" fill="rgba(11, 188, 82, 0.91)" class="triangle-float2"></path></g><defs><mask id="SvgjsMask1372"><rect width="1440" height="2560" fill="#ffffff"></rect></mask><style>
                @keyframes float1 {
                    0%{transform: translate(0, 0)}
                    50%{transform: translate(-10px, 0)}
                    100%{transform: translate(0, 0)}
                }

                .triangle-float1 {
                    animation: float1 5s infinite;
                }

                @keyframes float2 {
                    0%{transform: translate(0, 0)}
                    50%{transform: translate(-5px, -5px)}
                    100%{transform: translate(0, 0)}
                }

                .triangle-float2 {
                    animation: float2 4s infinite;
                }

                @keyframes float3 {
                    0%{transform: translate(0, 0)}
                    50%{transform: translate(0, -10px)}
                    100%{transform: translate(0, 0)}
                }

                .triangle-float3 {
                    animation: float3 6s infinite;
                }
            </style></defs></svg>